<svg xmlns="http://www.w3.org/2000/svg" xmlns:xlink="http://www.w3.org/1999/xlink" version="1.1" width="1000" height="1000" viewBox="0 0 1000 1000" xml:space="preserve">
<desc>Created with Fabric.js 3.5.0</desc>
<defs>
</defs>
<rect x="0" y="0" width="100%" height="100%" fill="#ffffff"/>
<g transform="matrix(2.5253 0 0 2.5253 500.0085 500.0047)" id="400918">
<g style="" vector-effect="non-scaling-stroke">
		<g transform="matrix(1 0 0 1 -83 -4.4863)" id="path3292">
<path style="stroke: rgb(0,0,0); stroke-width: 2; stroke-dasharray: none; stroke-linecap: butt; stroke-dashoffset: 0; stroke-linejoin: miter; stroke-miterlimit: 4; is-custom-font: none; font-file-url: none; fill: rgb(255,255,255); fill-rule: evenodd; opacity: 1;" transform=" translate(-140.625, -796.7367)" d="m 126 724.61 c 11.26 1.51 20.64 1.15 29.25 0 l 5.25 7.25 c 22.64 8.58 35.77 7.65 60 21 c -3.12 10.49 -3.71 21.99 -13 30 c -7.75 -6.09 -15.5 -4.8 -23.25 -6.75 v 88.25 c -29.13 5.3 -58.04 6.67 -86.5 0 v -88.25 c -6.741 0.75 -12.342 0.2 -23.5 6 c -8.376 -6.98 -10.991 -18.45 -13.5 -30 c 25.954 -11.67 39.005 -13.26 60.25 -19.75 l 5 -7.75 z" stroke-linecap="round"/>
</g>
		<g transform="matrix(1 0 0 1 -94 -62.363)" id="path3296">
<path style="stroke: rgb(0,0,0); stroke-width: 1; stroke-dasharray: none; stroke-linecap: butt; stroke-dashoffset: 0; stroke-linejoin: miter; stroke-miterlimit: 4; is-custom-font: none; font-file-url: none; fill: none; fill-rule: nonzero; opacity: 1;" transform=" translate(-129.625, -738.86)" d="m 125.5 725.61 c 2.74 8.06 6.68 14.68 12.75 18.75 l -7 7.75 c -7.73 -5.93 -8.17 -12.68 -10.25 -19.25" stroke-linecap="round"/>
</g>
		<g transform="matrix(1 0 0 1 -123.6325 -43.613)" id="path3298">
<path style="stroke: rgb(0,0,0); stroke-width: 1; stroke-dasharray: none; stroke-linecap: butt; stroke-dashoffset: 0; stroke-linejoin: miter; stroke-miterlimit: 4; is-custom-font: none; font-file-url: none; fill: none; fill-rule: nonzero; opacity: 1;" transform=" translate(-99.9925, -757.61)" d="m 98.5 739.36 c 2.06 11.05 6.24 24.83 -0.25 36.5" stroke-linecap="round"/>
</g>
		<g transform="matrix(1 0 0 1 -112.625 -59.113)" id="path3300">
<path style="stroke: rgb(0,0,0); stroke-width: 1; stroke-dasharray: none; stroke-linecap: butt; stroke-dashoffset: 0; stroke-linejoin: miter; stroke-miterlimit: 4; is-custom-font: none; font-file-url: none; fill: none; fill-rule: nonzero; opacity: 1;" transform=" translate(-111, -742.11)" d="m 100 745.86 l 22 -7.5" stroke-linecap="round"/>
</g>
		<g transform="matrix(1 0 0 1 -152.375 -35.793)" id="path3302">
<path style="stroke: rgb(0,0,0); stroke-width: 1; stroke-dasharray: none; stroke-linecap: butt; stroke-dashoffset: 0; stroke-linejoin: miter; stroke-miterlimit: 4; is-custom-font: none; font-file-url: none; fill: none; fill-rule: nonzero; opacity: 1;" transform=" translate(-71.25, -765.43)" d="m 64.75 751 c 1.429 11.5 6.974 20.65 13 28.86" stroke-linecap="round"/>
</g>
		<g transform="matrix(1 0 0 1 -82.75 61.5148)" id="path3304">
<path style="stroke: rgb(0,0,0); stroke-width: 1; stroke-dasharray: none; stroke-linecap: butt; stroke-dashoffset: 0; stroke-linejoin: miter; stroke-miterlimit: 4; is-custom-font: none; font-file-url: none; fill: none; fill-rule: nonzero; opacity: 1;" transform=" translate(-140.875, -862.7378)" d="m 97.75 860.86 c 28.75 4.1 57.5 5.84 86.25 0" stroke-linecap="round"/>
</g>
		<g transform="matrix(1 0 0 1 -72.25 -62.863)" id="path3314">
<path style="stroke: rgb(0,0,0); stroke-width: 1; stroke-dasharray: none; stroke-linecap: butt; stroke-dashoffset: 0; stroke-linejoin: miter; stroke-miterlimit: 4; is-custom-font: none; font-file-url: none; fill: none; fill-rule: nonzero; opacity: 1;" transform=" translate(-151.375, -738.36)" d="m 155.5 725.11 c -2.74 8.06 -6.68 14.68 -12.75 18.75 l 7 7.75 c 7.73 -5.93 8.17 -12.68 10.25 -19.25" stroke-linecap="round"/>
</g>
		<g transform="matrix(1 0 0 1 -41.6175 -43.863)" id="path3316">
<path style="stroke: rgb(0,0,0); stroke-width: 1; stroke-dasharray: none; stroke-linecap: butt; stroke-dashoffset: 0; stroke-linejoin: miter; stroke-miterlimit: 4; is-custom-font: none; font-file-url: none; fill: none; fill-rule: nonzero; opacity: 1;" transform=" translate(-182.0075, -757.36)" d="m 183.5 739.11 c -2.06 11.05 -6.24 24.83 0.25 36.5" stroke-linecap="round"/>
</g>
		<g transform="matrix(1 0 0 1 -53.375 -59.363)" id="path3318">
<path style="stroke: rgb(0,0,0); stroke-width: 1; stroke-dasharray: none; stroke-linecap: butt; stroke-dashoffset: 0; stroke-linejoin: miter; stroke-miterlimit: 4; is-custom-font: none; font-file-url: none; fill: none; fill-rule: nonzero; opacity: 1;" transform=" translate(-170.25, -741.86)" d="m 182 745.86 l -23.5 -8" stroke-linecap="round"/>
</g>
		<g transform="matrix(1 0 0 1 -13.625 -35.738)" id="path3320">
<path style="stroke: rgb(0,0,0); stroke-width: 1; stroke-dasharray: none; stroke-linecap: butt; stroke-dashoffset: 0; stroke-linejoin: miter; stroke-miterlimit: 4; is-custom-font: none; font-file-url: none; fill: none; fill-rule: nonzero; opacity: 1;" transform=" translate(-210, -765.485)" d="m 216.5 751.36 c -1.43 11.49 -6.97 20.04 -13 28.25" stroke-linecap="round"/>
</g>
		<g transform="matrix(1 0 0 1 -83.375 -68.6703)" id="path3322">
<path style="stroke: rgb(0,0,0); stroke-width: 1; stroke-dasharray: none; stroke-linecap: butt; stroke-dashoffset: 0; stroke-linejoin: miter; stroke-miterlimit: 4; is-custom-font: none; font-file-url: none; fill: none; fill-rule: nonzero; opacity: 1;" transform=" translate(-140.25, -732.5526)" d="m 128.75 733.36 c 7.4 -2.31 14.94 -1.99 23 0" stroke-linecap="round"/>
</g>
		<g transform="matrix(1 0 0 1 -83.25 -45.488)" id="rect3324">
<path style="stroke: rgb(0,0,0); stroke-width: 1; stroke-dasharray: none; stroke-linecap: round; stroke-dashoffset: 0; stroke-linejoin: miter; stroke-miterlimit: 4; is-custom-font: none; font-file-url: none; fill: none; fill-rule: nonzero; opacity: 1;" transform=" translate(-140.375, -755.735)" d="m 138.5 744.11 h 3.75 v 23.25 h -3.75 v -23.25 z" stroke-linecap="round"/>
</g>
		<g transform="matrix(1 0 0 1 82.995 -4.4863)" id="path3343">
<path style="stroke: rgb(0,0,0); stroke-width: 2; stroke-dasharray: none; stroke-linecap: butt; stroke-dashoffset: 0; stroke-linejoin: miter; stroke-miterlimit: 4; is-custom-font: none; font-file-url: none; fill: rgb(255,255,255); fill-rule: evenodd; opacity: 1;" transform=" translate(-140.625, -796.7367)" d="m 126 724.61 c 11.26 1.51 20.64 1.15 29.25 0 l 5.25 7.25 c 22.64 8.58 35.77 7.65 60 21 c -3.12 10.49 -3.71 21.99 -13 30 c -7.75 -6.09 -15.5 -4.8 -23.25 -6.75 v 88.25 c -29.13 5.3 -58.04 6.67 -86.5 0 v -88.25 c -6.741 0.75 -12.342 0.2 -23.5 6 c -8.376 -6.98 -10.991 -18.45 -13.5 -30 c 25.954 -11.67 39.005 -13.26 60.25 -19.75 l 5 -7.75 z" stroke-linecap="round"/>
</g>
		<g transform="matrix(1 0 0 1 42.3625 -43.613)" id="path3347">
<path style="stroke: rgb(0,0,0); stroke-width: 1; stroke-dasharray: none; stroke-linecap: butt; stroke-dashoffset: 0; stroke-linejoin: miter; stroke-miterlimit: 4; is-custom-font: none; font-file-url: none; fill: none; fill-rule: nonzero; opacity: 1;" transform=" translate(-99.9925, -757.61)" d="m 98.5 739.36 c 2.06 11.05 6.24 24.83 -0.25 36.5" stroke-linecap="round"/>
</g>
		<g transform="matrix(1 0 0 1 13.5185 -35.893)" id="path3351">
<path style="stroke: rgb(0,0,0); stroke-width: 1; stroke-dasharray: none; stroke-linecap: butt; stroke-dashoffset: 0; stroke-linejoin: miter; stroke-miterlimit: 4; is-custom-font: none; font-file-url: none; fill: none; fill-rule: nonzero; opacity: 1;" transform=" translate(-71.1485, -765.33)" d="m 64.547 750.8 c 1.429 11.49 7.177 20.85 13.203 29.06" stroke-linecap="round"/>
</g>
		<g transform="matrix(1 0 0 1 83.245 61.5148)" id="path3353">
<path style="stroke: rgb(0,0,0); stroke-width: 1; stroke-dasharray: none; stroke-linecap: butt; stroke-dashoffset: 0; stroke-linejoin: miter; stroke-miterlimit: 4; is-custom-font: none; font-file-url: none; fill: none; fill-rule: nonzero; opacity: 1;" transform=" translate(-140.875, -862.7378)" d="m 97.75 860.86 c 28.75 4.1 57.5 5.84 86.25 0" stroke-linecap="round"/>
</g>
		<g transform="matrix(1 0 0 1 124.3775 -43.863)" id="path3357">
<path style="stroke: rgb(0,0,0); stroke-width: 1; stroke-dasharray: none; stroke-linecap: butt; stroke-dashoffset: 0; stroke-linejoin: miter; stroke-miterlimit: 4; is-custom-font: none; font-file-url: none; fill: none; fill-rule: nonzero; opacity: 1;" transform=" translate(-182.0075, -757.36)" d="m 183.5 739.11 c -2.06 11.05 -6.24 24.83 0.25 36.5" stroke-linecap="round"/>
</g>
		<g transform="matrix(1 0 0 1 152.37 -35.738)" id="path3361">
<path style="stroke: rgb(0,0,0); stroke-width: 1; stroke-dasharray: none; stroke-linecap: butt; stroke-dashoffset: 0; stroke-linejoin: miter; stroke-miterlimit: 4; is-custom-font: none; font-file-url: none; fill: none; fill-rule: nonzero; opacity: 1;" transform=" translate(-210, -765.485)" d="m 216.5 751.36 c -1.43 11.49 -6.97 20.04 -13 28.25" stroke-linecap="round"/>
</g>
		<g transform="matrix(1 0 0 1 83.33 -66.3951)" id="path3363">
<path style="stroke: rgb(0,0,0); stroke-width: 1; stroke-dasharray: none; stroke-linecap: butt; stroke-dashoffset: 0; stroke-linejoin: miter; stroke-miterlimit: 4; is-custom-font: none; font-file-url: none; fill: none; fill-rule: nonzero; opacity: 1;" transform=" translate(-140.96, -734.8279)" d="m 121.66 732.96 c 4.27 5.62 31.66 6.77 38.6 -0.81" stroke-linecap="round"/>
</g>
		<g transform="matrix(1 0 0 1 0.075 -77.4595)" id="text3459">
<path style="stroke: none; stroke-width: 1; stroke-dasharray: none; stroke-linecap: butt; stroke-dashoffset: 0; stroke-linejoin: miter; stroke-miterlimit: 4; is-custom-font: none; font-file-url: none; fill: rgb(0,0,0); fill-rule: nonzero; opacity: 1;" transform=" translate(-201.825, -33.6335)" d="m 170.88 29.782 v 3.835 h 1.74 c 0.64 0 1.14 -0.167 1.49 -0.499 c 0.35 -0.333 0.53 -0.807 0.53 -1.422 c 0 -0.611 -0.18 -1.083 -0.53 -1.415 c -0.35 -0.333 -0.85 -0.499 -1.49 -0.499 h -1.74 m -1.38 -1.135 h 3.12 c 1.14 0 2.01 0.26 2.59 0.779 c 0.59 0.515 0.88 1.272 0.88 2.27 c 0 1.007 -0.29 1.768 -0.88 2.283 c -0.58 0.515 -1.45 0.772 -2.59 0.772 h -1.74 v 4.102 h -1.38 v -10.206 m 10.87 3.432 c -0.67 0 -1.21 0.264 -1.6 0.793 c -0.39 0.524 -0.59 1.244 -0.59 2.16 s 0.2 1.638 0.59 2.167 c 0.39 0.524 0.92 0.786 1.6 0.786 c 0.67 0 1.2 -0.264 1.59 -0.793 c 0.4 -0.529 0.59 -1.249 0.59 -2.16 c 0 -0.907 -0.19 -1.625 -0.59 -2.154 c -0.39 -0.533 -0.92 -0.799 -1.59 -0.799 m 0 -1.067 c 1.1 0 1.95 0.356 2.58 1.067 c 0.62 0.711 0.94 1.695 0.94 2.953 c 0 1.253 -0.32 2.237 -0.94 2.953 c -0.63 0.711 -1.48 1.066 -2.58 1.066 s -1.96 -0.355 -2.58 -1.066 c -0.62 -0.716 -0.93 -1.7 -0.93 -2.953 c 0 -1.258 0.31 -2.242 0.93 -2.953 s 1.48 -1.067 2.58 -1.067 m 5.59 -2.796 h 1.26 v 10.637 h -1.26 v -10.637 m 6.85 3.863 c -0.67 0 -1.2 0.264 -1.6 0.793 c -0.39 0.524 -0.58 1.244 -0.58 2.16 s 0.19 1.638 0.58 2.167 c 0.39 0.524 0.92 0.786 1.6 0.786 c 0.67 0 1.2 -0.264 1.6 -0.793 c 0.39 -0.529 0.58 -1.249 0.58 -2.16 c 0 -0.907 -0.19 -1.625 -0.58 -2.154 c -0.4 -0.533 -0.93 -0.799 -1.6 -0.799 m 0 -1.067 c 1.1 0 1.96 0.356 2.58 1.067 s 0.94 1.695 0.94 2.953 c 0 1.253 -0.32 2.237 -0.94 2.953 c -0.62 0.711 -1.48 1.066 -2.58 1.066 s -1.96 -0.355 -2.58 -1.066 c -0.62 -0.716 -0.93 -1.7 -0.93 -2.953 c 0 -1.258 0.31 -2.242 0.93 -2.953 s 1.48 -1.067 2.58 -1.067 m 16.22 -2.03 v 1.347 c -0.52 -0.251 -1.01 -0.438 -1.48 -0.561 c -0.46 -0.123 -0.91 -0.185 -1.35 -0.185 c -0.75 0 -1.33 0.146 -1.74 0.438 c -0.4 0.292 -0.61 0.706 -0.61 1.244 c 0 0.451 0.14 0.793 0.41 1.025 c 0.27 0.228 0.79 0.413 1.54 0.554 l 0.84 0.171 c 1.03 0.196 1.78 0.542 2.27 1.039 c 0.49 0.492 0.74 1.153 0.74 1.983 c 0 0.989 -0.33 1.738 -1 2.249 c -0.66 0.51 -1.63 0.765 -2.91 0.765 c -0.48 0 -1 -0.054 -1.54 -0.164 c -0.55 -0.109 -1.11 -0.271 -1.69 -0.485 v -1.422 c 0.56 0.314 1.11 0.551 1.64 0.711 c 0.54 0.159 1.07 0.239 1.59 0.239 c 0.79 0 1.4 -0.155 1.83 -0.465 c 0.42 -0.31 0.64 -0.752 0.64 -1.326 c 0 -0.501 -0.16 -0.893 -0.47 -1.176 c -0.3 -0.282 -0.81 -0.494 -1.51 -0.635 l -0.84 -0.164 c -1.03 -0.206 -1.77 -0.527 -2.23 -0.964 c -0.46 -0.438 -0.69 -1.046 -0.69 -1.826 c 0 -0.902 0.31 -1.613 0.95 -2.132 c 0.63 -0.52 1.51 -0.78 2.63 -0.78 c 0.48 0 0.96 0.044 1.46 0.13 c 0.5 0.087 1.01 0.217 1.52 0.39 m 9.11 5.25 v 4.621 h -1.26 v -4.58 c 0 -0.725 -0.14 -1.267 -0.42 -1.627 s -0.71 -0.54 -1.27 -0.54 c -0.68 0 -1.22 0.216 -1.61 0.649 s -0.59 1.023 -0.59 1.771 v 4.327 h -1.26 v -10.637 h 1.26 v 4.17 c 0.3 -0.46 0.66 -0.804 1.06 -1.032 c 0.41 -0.228 0.88 -0.342 1.42 -0.342 c 0.88 0 1.54 0.274 1.99 0.82 c 0.45 0.543 0.68 1.343 0.68 2.4 m 2.52 -3.035 h 1.26 v 7.656 h -1.26 v -7.656 m 0 -2.981 h 1.26 v 1.593 h -1.26 v -1.593 m 8.32 4.157 c -0.14 -0.082 -0.29 -0.142 -0.46 -0.178 c -0.17 -0.041 -0.35 -0.062 -0.55 -0.062 c -0.71 0 -1.26 0.233 -1.64 0.698 c -0.38 0.46 -0.57 1.123 -0.57 1.989 v 4.033 h -1.26 v -7.656 h 1.26 v 1.189 c 0.27 -0.465 0.61 -0.809 1.03 -1.032 c 0.43 -0.228 0.94 -0.342 1.55 -0.342 c 0.09 0 0.18 0.007 0.29 0.021 c 0.1 0.009 0.22 0.025 0.35 0.048 v 1.292 m 2.58 -3.35 v 2.174 h 2.59 v 0.977 h -2.59 v 4.157 c 0 0.624 0.08 1.025 0.25 1.203 c 0.18 0.177 0.52 0.266 1.05 0.266 h 1.29 v 1.053 h -1.29 c -0.97 0 -1.64 -0.18 -2.01 -0.54 c -0.37 -0.365 -0.56 -1.025 -0.56 -1.982 v -4.157 h -0.92 v -0.977 h 0.92 v -2.174 h 1.27" stroke-linecap="round"/>
</g>
		<g transform="matrix(1 0 0 1 -82.845 78.692)" id="text3471">
<path style="stroke: none; stroke-width: 1; stroke-dasharray: none; stroke-linecap: butt; stroke-dashoffset: 0; stroke-linejoin: miter; stroke-miterlimit: 4; is-custom-font: none; font-file-url: none; fill: rgb(0,0,0); fill-rule: nonzero; opacity: 1;" transform=" translate(-118.905, -189.785)" d="m 106.54 186.51 v 3.07 h 4.61 v 0.93 h -4.61 v 3.34 h -1.12 v -8.25 h 5.87 v 0.91 h -4.75 m 6.07 7.34 v -4.86 c 0 -0.13 -0.01 -0.27 -0.01 -0.4 c 0 -0.15 0 -0.28 -0.01 -0.41 c 0 -0.13 0 -0.25 -0.01 -0.36 c 0 -0.12 0 -0.22 -0.01 -0.31 h 1 c 0 0.09 0.01 0.2 0.01 0.31 c 0.01 0.12 0.01 0.23 0.02 0.36 c 0 0.12 0.01 0.23 0.01 0.35 v 0.28 h 0.03 c 0.07 -0.24 0.15 -0.45 0.23 -0.63 c 0.09 -0.18 0.19 -0.33 0.3 -0.44 c 0.11 -0.12 0.25 -0.2 0.41 -0.26 c 0.15 -0.05 0.34 -0.08 0.56 -0.08 c 0.09 0 0.17 0 0.25 0.02 c 0.08 0.01 0.14 0.02 0.18 0.03 v 0.97 c -0.07 -0.02 -0.15 -0.03 -0.24 -0.04 c -0.1 -0.01 -0.2 -0.02 -0.32 -0.02 c -0.24 0 -0.45 0.06 -0.62 0.17 s -0.31 0.26 -0.42 0.45 c -0.1 0.2 -0.18 0.43 -0.23 0.7 c -0.05 0.26 -0.08 0.55 -0.08 0.87 v 3.3 h -1.05 m 9.34 -3.17 c 0 1.11 -0.24 1.93 -0.73 2.48 c -0.49 0.54 -1.2 0.81 -2.13 0.81 c -0.44 0 -0.83 -0.07 -1.18 -0.2 s -0.64 -0.33 -0.89 -0.61 c -0.23 -0.27 -0.42 -0.61 -0.55 -1.02 c -0.12 -0.42 -0.18 -0.9 -0.18 -1.46 c 0 -2.19 0.94 -3.28 2.84 -3.28 c 0.49 0 0.91 0.06 1.27 0.2 s 0.65 0.34 0.88 0.62 c 0.23 0.27 0.4 0.61 0.51 1.02 s 0.16 0.89 0.16 1.44 m -1.11 0 c 0 -0.49 -0.03 -0.9 -0.11 -1.22 s -0.19 -0.58 -0.34 -0.77 c -0.14 -0.19 -0.32 -0.32 -0.53 -0.4 s -0.45 -0.11 -0.71 -0.11 c -0.27 0 -0.52 0.04 -0.74 0.12 c -0.21 0.08 -0.4 0.21 -0.55 0.41 c -0.15 0.19 -0.27 0.45 -0.35 0.77 s -0.12 0.72 -0.12 1.2 c 0 0.49 0.05 0.9 0.13 1.22 c 0.09 0.32 0.21 0.58 0.35 0.77 c 0.16 0.19 0.33 0.33 0.54 0.4 c 0.2 0.08 0.43 0.12 0.67 0.12 c 0.27 0 0.51 -0.04 0.73 -0.11 c 0.22 -0.08 0.41 -0.21 0.56 -0.4 c 0.15 -0.2 0.27 -0.45 0.35 -0.78 c 0.08 -0.32 0.12 -0.73 0.12 -1.22 m 6.46 3.17 v -4.02 c 0 -0.31 -0.03 -0.56 -0.07 -0.77 c -0.05 -0.21 -0.12 -0.37 -0.22 -0.5 s -0.24 -0.22 -0.41 -0.27 c -0.16 -0.05 -0.36 -0.08 -0.61 -0.08 s -0.48 0.05 -0.68 0.14 c -0.2 0.08 -0.37 0.21 -0.52 0.38 c -0.14 0.16 -0.25 0.37 -0.32 0.61 c -0.08 0.24 -0.12 0.52 -0.12 0.84 v 3.67 h -1.06 v -5.4 c 0 -0.15 0 -0.29 -0.01 -0.42 c 0 -0.13 -0.01 -0.24 -0.01 -0.34 c 0 -0.09 -0.01 -0.15 -0.01 -0.18 h 0.99 c 0.01 0.02 0.01 0.08 0.02 0.16 c 0 0.09 0 0.19 0.01 0.3 s 0.01 0.22 0.02 0.34 v 0.29 h 0.02 c 0.1 -0.19 0.21 -0.35 0.33 -0.5 s 0.27 -0.27 0.43 -0.38 c 0.16 -0.1 0.34 -0.18 0.55 -0.24 c 0.2 -0.05 0.44 -0.08 0.72 -0.08 c 0.35 0 0.65 0.04 0.9 0.12 c 0.26 0.09 0.47 0.22 0.63 0.4 c 0.17 0.18 0.29 0.42 0.36 0.7 c 0.08 0.28 0.12 0.62 0.12 1.01 v 4.22 h -1.06 m 5.09 -0.04 c -0.16 0.04 -0.33 0.07 -0.49 0.1 c -0.17 0.02 -0.36 0.04 -0.58 0.04 c -0.84 0 -1.26 -0.48 -1.26 -1.44 v -4.23 h -0.74 v -0.77 h 0.78 l 0.31 -1.41 h 0.7 v 1.41 h 1.17 v 0.77 h -1.17 v 4 c 0 0.31 0.05 0.52 0.15 0.65 c 0.1 0.12 0.27 0.18 0.52 0.18 c 0.1 0 0.2 -0.01 0.29 -0.02 c 0.1 -0.02 0.2 -0.04 0.32 -0.06 v 0.78" stroke-linecap="round"/>
</g>
		<g transform="matrix(1 0 0 1 83.49 78.472)" id="text3475">
<path style="stroke: none; stroke-width: 1; stroke-dasharray: none; stroke-linecap: butt; stroke-dashoffset: 0; stroke-linejoin: miter; stroke-miterlimit: 4; is-custom-font: none; font-file-url: none; fill: rgb(0,0,0); fill-rule: nonzero; opacity: 1;" transform=" translate(-285.24, -189.565)" d="m 278.76 191.53 c 0 0.41 -0.08 0.77 -0.24 1.07 c -0.17 0.29 -0.39 0.53 -0.67 0.72 c -0.27 0.18 -0.6 0.32 -0.96 0.4 c -0.37 0.09 -0.76 0.13 -1.16 0.13 h -3.35 v -8.25 h 3 c 0.45 0 0.86 0.04 1.22 0.11 c 0.36 0.08 0.66 0.2 0.91 0.36 c 0.25 0.17 0.44 0.37 0.57 0.63 c 0.14 0.25 0.2 0.55 0.2 0.9 c 0 0.23 -0.03 0.45 -0.1 0.65 c -0.06 0.2 -0.16 0.39 -0.29 0.56 c -0.13 0.16 -0.29 0.3 -0.49 0.43 c -0.2 0.11 -0.43 0.2 -0.69 0.26 c 0.33 0.04 0.63 0.11 0.88 0.23 c 0.26 0.11 0.47 0.26 0.65 0.43 c 0.17 0.18 0.3 0.38 0.39 0.62 c 0.09 0.23 0.13 0.48 0.13 0.75 m -1.6 -3.79 c 0 -0.45 -0.16 -0.77 -0.46 -0.96 s -0.75 -0.29 -1.32 -0.29 h -1.89 v 2.62 h 1.89 c 0.32 0 0.6 -0.03 0.83 -0.1 c 0.22 -0.06 0.41 -0.16 0.55 -0.27 c 0.14 -0.12 0.24 -0.27 0.3 -0.44 c 0.07 -0.16 0.1 -0.35 0.1 -0.56 m 0.47 3.7 c 0 -0.26 -0.05 -0.49 -0.14 -0.67 c -0.1 -0.18 -0.24 -0.33 -0.42 -0.45 c -0.17 -0.12 -0.39 -0.2 -0.65 -0.26 c -0.25 -0.05 -0.53 -0.08 -0.84 -0.08 h -2.09 v 2.98 h 2.18 c 0.28 0 0.55 -0.03 0.78 -0.07 c 0.25 -0.05 0.45 -0.13 0.62 -0.25 c 0.18 -0.12 0.32 -0.27 0.42 -0.47 c 0.09 -0.19 0.14 -0.44 0.14 -0.73 m 4.18 2.53 c -0.64 0 -1.12 -0.17 -1.44 -0.5 c -0.32 -0.34 -0.48 -0.8 -0.48 -1.39 c 0 -0.41 0.08 -0.76 0.24 -1.02 c 0.16 -0.27 0.36 -0.48 0.62 -0.63 c 0.26 -0.16 0.55 -0.26 0.88 -0.32 s 0.66 -0.09 1 -0.1 l 1.42 -0.02 v -0.35 c 0 -0.26 -0.02 -0.48 -0.08 -0.67 c -0.05 -0.18 -0.14 -0.33 -0.25 -0.44 c -0.11 -0.12 -0.26 -0.2 -0.43 -0.25 s -0.37 -0.08 -0.6 -0.08 c -0.2 0 -0.38 0.01 -0.55 0.05 c -0.16 0.02 -0.3 0.08 -0.42 0.15 c -0.13 0.08 -0.22 0.18 -0.3 0.31 c -0.07 0.13 -0.12 0.3 -0.14 0.5 l -1.11 -0.1 c 0.04 -0.25 0.12 -0.48 0.23 -0.69 s 0.26 -0.39 0.46 -0.54 c 0.2 -0.16 0.46 -0.27 0.76 -0.36 c 0.3 -0.08 0.67 -0.12 1.1 -0.12 c 0.79 0 1.39 0.18 1.8 0.55 c 0.4 0.36 0.6 0.89 0.6 1.58 v 2.73 c 0 0.31 0.04 0.55 0.12 0.71 c 0.08 0.15 0.24 0.23 0.47 0.23 c 0.06 0 0.12 0 0.18 -0.01 s 0.11 -0.02 0.17 -0.03 v 0.66 c -0.14 0.03 -0.27 0.05 -0.4 0.07 c -0.13 0.01 -0.27 0.02 -0.42 0.02 c -0.2 0 -0.37 -0.02 -0.51 -0.07 c -0.14 -0.06 -0.26 -0.14 -0.35 -0.24 c -0.09 -0.11 -0.16 -0.25 -0.2 -0.4 c -0.05 -0.16 -0.08 -0.35 -0.09 -0.56 h -0.04 c -0.11 0.2 -0.23 0.39 -0.37 0.55 c -0.13 0.16 -0.29 0.31 -0.47 0.42 c -0.18 0.12 -0.39 0.2 -0.62 0.27 c -0.22 0.06 -0.48 0.09 -0.78 0.09 m 0.24 -0.79 c 0.34 0 0.63 -0.06 0.88 -0.18 c 0.25 -0.13 0.46 -0.29 0.63 -0.48 c 0.16 -0.19 0.29 -0.4 0.37 -0.62 c 0.08 -0.23 0.12 -0.45 0.12 -0.65 v -0.53 l -1.15 0.03 c -0.26 0 -0.5 0.02 -0.74 0.06 c -0.23 0.03 -0.43 0.09 -0.61 0.19 c -0.17 0.1 -0.31 0.23 -0.42 0.41 c -0.1 0.18 -0.15 0.41 -0.15 0.69 c 0 0.34 0.09 0.61 0.27 0.8 c 0.19 0.19 0.46 0.28 0.8 0.28 m 5.62 -2.53 c 0 0.37 0.03 0.7 0.08 1.01 c 0.06 0.3 0.15 0.56 0.27 0.79 c 0.13 0.22 0.29 0.39 0.49 0.51 c 0.21 0.12 0.46 0.18 0.76 0.18 c 0.38 0 0.69 -0.1 0.94 -0.31 c 0.26 -0.2 0.41 -0.51 0.47 -0.93 l 1.07 0.07 c -0.04 0.26 -0.11 0.51 -0.23 0.75 s -0.28 0.46 -0.48 0.64 s -0.45 0.33 -0.73 0.45 c -0.29 0.11 -0.63 0.16 -1.01 0.16 c -0.49 0 -0.91 -0.08 -1.26 -0.25 s -0.63 -0.4 -0.85 -0.69 c -0.22 -0.3 -0.37 -0.65 -0.47 -1.05 s -0.15 -0.83 -0.15 -1.3 c 0 -0.43 0.04 -0.8 0.11 -1.13 s 0.17 -0.61 0.29 -0.85 c 0.13 -0.25 0.28 -0.45 0.45 -0.62 s 0.36 -0.3 0.56 -0.4 s 0.42 -0.17 0.64 -0.21 c 0.22 -0.05 0.45 -0.07 0.67 -0.07 c 0.36 0 0.67 0.04 0.95 0.14 s 0.52 0.23 0.72 0.41 c 0.2 0.16 0.36 0.36 0.49 0.59 c 0.12 0.23 0.21 0.48 0.26 0.75 l -1.08 0.08 c -0.06 -0.35 -0.2 -0.63 -0.42 -0.84 c -0.22 -0.2 -0.54 -0.31 -0.95 -0.31 c -0.3 0 -0.55 0.05 -0.75 0.15 s -0.36 0.25 -0.49 0.46 c -0.12 0.19 -0.21 0.45 -0.27 0.75 c -0.05 0.31 -0.08 0.66 -0.08 1.07 m 9.2 3.2 l -2.15 -2.89 l -0.77 0.64 v 2.25 h -1.05 v -8.69 h 1.05 v 5.43 l 2.78 -3.08 h 1.24 l -2.57 2.73 l 2.7 3.61 h -1.23" stroke-linecap="round"/>
</g>
</g>
</g>
<g transform="matrix(1 0 0 1 712.766 755.3192)" id="324362" clip-path="url(#CLIPPATH_6)">
<clipPath id="CLIPPATH_6">
	<rect transform="matrix(1 0 0 1 0.0001 0.0002)" id="clip0_302_100" x="-79" y="-79" rx="0" ry="0" width="158" height="158"/>
</clipPath>
<path style="stroke: none; stroke-width: 1; stroke-dasharray: none; stroke-linecap: butt; stroke-dashoffset: 0; stroke-linejoin: miter; stroke-miterlimit: 4; is-custom-font: none; font-file-url: none; fill: rgb(255,255,255); fill-rule: nonzero; opacity: 1;" vector-effect="non-scaling-stroke" transform=" translate(-78.9999, -78.9998)" d="M 154.685 0.000367219 H 3.31409 C 1.48378 0.000367219 0 1.48415 0 3.31478 V 154.686 C 0 156.516 1.48378 158 3.31409 158 H 154.685 C 156.515 158 157.999 156.516 157.999 154.686 V 3.31478 C 158 3.26912 158 3.22347 157.999 3.17813 C 157.962 1.38523 156.478 -0.0373614 154.685 0.000367219 Z" stroke-linecap="round"/>
</g>
<g transform="matrix(1 0 0 1 293.0497 755.3192)" id="991482" clip-path="url(#CLIPPATH_7)">
<clipPath id="CLIPPATH_7">
	<rect transform="matrix(1 0 0 1 0.0001 0.0002)" id="clip0_302_100" x="-79" y="-79" rx="0" ry="0" width="158" height="158"/>
</clipPath>
<path style="stroke: none; stroke-width: 1; stroke-dasharray: none; stroke-linecap: butt; stroke-dashoffset: 0; stroke-linejoin: miter; stroke-miterlimit: 4; is-custom-font: none; font-file-url: none; fill: rgb(255,255,255); fill-rule: nonzero; opacity: 1;" vector-effect="non-scaling-stroke" transform=" translate(-78.9999, -78.9998)" d="M 154.685 0.000367219 H 3.31409 C 1.48378 0.000367219 0 1.48415 0 3.31478 V 154.686 C 0 156.516 1.48378 158 3.31409 158 H 154.685 C 156.515 158 157.999 156.516 157.999 154.686 V 3.31478 C 158 3.26912 158 3.22347 157.999 3.17813 C 157.962 1.38523 156.478 -0.0373614 154.685 0.000367219 Z" stroke-linecap="round"/>
</g>
<g transform="matrix(1.1102 0 0 1 499.9992 253.1324)" id="408648" clip-path="url(#CLIPPATH_8)">
<clipPath id="CLIPPATH_8">
	<rect transform="matrix(1 0 0 1 0.0001 0.0002)" id="clip0_302_100" x="-79" y="-79" rx="0" ry="0" width="158" height="158"/>
</clipPath>
<path style="stroke: none; stroke-width: 1; stroke-dasharray: none; stroke-linecap: butt; stroke-dashoffset: 0; stroke-linejoin: miter; stroke-miterlimit: 4; is-custom-font: none; font-file-url: none; fill: rgb(255,255,255); fill-rule: nonzero; opacity: 1;" vector-effect="non-scaling-stroke" transform=" translate(-78.9999, -78.9998)" d="M 154.685 0.000367219 H 3.31409 C 1.48378 0.000367219 0 1.48415 0 3.31478 V 154.686 C 0 156.516 1.48378 158 3.31409 158 H 154.685 C 156.515 158 157.999 156.516 157.999 154.686 V 3.31478 C 158 3.26912 158 3.22347 157.999 3.17813 C 157.962 1.38523 156.478 -0.0373614 154.685 0.000367219 Z" stroke-linecap="round"/>
</g>
</svg>